<?xml version="1.0" encoding="utf-8" standalone="no"?>
<!DOCTYPE svg PUBLIC "-//W3C//DTD SVG 1.1//EN"
  "http://www.w3.org/Graphics/SVG/1.1/DTD/svg11.dtd">
<svg xmlns:xlink="http://www.w3.org/1999/xlink" width="712.445625pt" height="568.105625pt" viewBox="0 0 712.445625 568.105625" xmlns="http://www.w3.org/2000/svg" version="1.1">
 <metadata>
  <rdf:RDF xmlns:dc="http://purl.org/dc/elements/1.1/" xmlns:cc="http://creativecommons.org/ns#" xmlns:rdf="http://www.w3.org/1999/02/22-rdf-syntax-ns#">
   <cc:Work>
    <dc:type rdf:resource="http://purl.org/dc/dcmitype/StillImage"/>
    <dc:date>2025-09-01T16:33:44.714715</dc:date>
    <dc:format>image/svg+xml</dc:format>
    <dc:creator>
     <cc:Agent>
      <dc:title>Matplotlib v3.10.5, https://matplotlib.org/</dc:title>
     </cc:Agent>
    </dc:creator>
   </cc:Work>
  </rdf:RDF>
 </metadata>
 <defs>
  <style type="text/css">*{stroke-linejoin: round; stroke-linecap: butt}</style>
 </defs>
 <g id="figure_1">
  <g id="patch_1">
   <path d="M 0 568.105625 
L 712.445625 568.105625 
L 712.445625 0 
L 0 0 
z
" style="fill: #ffffff"/>
  </g>
  <g id="axes_1">
   <g id="patch_2">
    <path d="M 44.309375 530.67125 
L 697.745625 530.67125 
L 697.745625 26.2 
L 44.309375 26.2 
z
" style="fill: #ffffff"/>
   </g>
   <g id="matplotlib.axis_1">
    <g id="xtick_1">
     <g id="line2d_1">
      <path d="M 44.309375 530.67125 
L 44.309375 26.2 
" clip-path="url(#peb4cee69cc)" style="fill: none; stroke-dasharray: 2.96,1.28; stroke-dashoffset: 0; stroke: #b0b0b0; stroke-opacity: 0.3; stroke-width: 0.8"/>
     </g>
     <g id="line2d_2">
      <defs>
       <path id="meb4f73c278" d="M 0 0 
L 0 3.5 
" style="stroke: #000000; stroke-width: 0.8"/>
      </defs>
      <g>
       <use xlink:href="#meb4f73c278" x="44.309375" y="530.67125" style="stroke: #000000; stroke-width: 0.8"/>
      </g>
     </g>
     <g id="text_1">
      <!-- 0 -->
      <g transform="translate(41.809375 544.54625) scale(0.1 -0.1)">
       <defs>
        <path id="SimHei-30" d="M 225 2537 
Q 250 3200 412 3587 
Q 575 3975 875 4225 
Q 1175 4475 1612 4475 
Q 2050 4475 2375 4112 
Q 2700 3750 2800 3200 
Q 2900 2650 2862 1937 
Q 2825 1225 2612 775 
Q 2400 325 1975 150 
Q 1550 -25 1125 187 
Q 700 400 525 750 
Q 350 1100 275 1487 
Q 200 1875 225 2537 
z
M 750 2687 
Q 675 2000 800 1462 
Q 925 925 1212 700 
Q 1500 475 1800 612 
Q 2100 750 2237 1162 
Q 2375 1575 2375 2062 
Q 2375 2550 2337 2950 
Q 2300 3350 2112 3675 
Q 1925 4000 1612 4012 
Q 1300 4025 1062 3700 
Q 825 3375 750 2687 
z
" transform="scale(0.015625)"/>
       </defs>
       <use xlink:href="#SimHei-30"/>
      </g>
     </g>
    </g>
    <g id="xtick_2">
     <g id="line2d_3">
      <path d="M 174.996625 530.67125 
L 174.996625 26.2 
" clip-path="url(#peb4cee69cc)" style="fill: none; stroke-dasharray: 2.96,1.28; stroke-dashoffset: 0; stroke: #b0b0b0; stroke-opacity: 0.3; stroke-width: 0.8"/>
     </g>
     <g id="line2d_4">
      <g>
       <use xlink:href="#meb4f73c278" x="174.996625" y="530.67125" style="stroke: #000000; stroke-width: 0.8"/>
      </g>
     </g>
     <g id="text_2">
      <!-- 20 -->
      <g transform="translate(169.996625 544.54625) scale(0.1 -0.1)">
       <defs>
        <path id="SimHei-32" d="M 300 250 
Q 325 625 650 925 
Q 975 1225 1475 1862 
Q 1975 2500 2125 2850 
Q 2275 3200 2237 3450 
Q 2200 3700 2000 3862 
Q 1800 4025 1537 4000 
Q 1275 3975 1037 3800 
Q 800 3625 675 3275 
L 200 3350 
Q 400 3925 712 4187 
Q 1025 4450 1450 4475 
Q 1700 4500 1900 4462 
Q 2100 4425 2312 4287 
Q 2525 4150 2662 3875 
Q 2800 3600 2762 3212 
Q 2725 2825 2375 2287 
Q 2025 1750 1025 600 
L 2825 600 
L 2825 150 
L 300 150 
L 300 250 
z
" transform="scale(0.015625)"/>
       </defs>
       <use xlink:href="#SimHei-32"/>
       <use xlink:href="#SimHei-30" transform="translate(50 0)"/>
      </g>
     </g>
    </g>
    <g id="xtick_3">
     <g id="line2d_5">
      <path d="M 305.683875 530.67125 
L 305.683875 26.2 
" clip-path="url(#peb4cee69cc)" style="fill: none; stroke-dasharray: 2.96,1.28; stroke-dashoffset: 0; stroke: #b0b0b0; stroke-opacity: 0.3; stroke-width: 0.8"/>
     </g>
     <g id="line2d_6">
      <g>
       <use xlink:href="#meb4f73c278" x="305.683875" y="530.67125" style="stroke: #000000; stroke-width: 0.8"/>
      </g>
     </g>
     <g id="text_3">
      <!-- 40 -->
      <g transform="translate(300.683875 544.54625) scale(0.1 -0.1)">
       <defs>
        <path id="SimHei-34" d="M 2000 1100 
L 75 1100 
L 75 1525 
L 2100 4450 
L 2475 4450 
L 2475 1525 
L 3075 1525 
L 3075 1100 
L 2475 1100 
L 2475 150 
L 2000 150 
L 2000 1100 
z
M 2000 1525 
L 2000 3500 
L 600 1525 
L 2000 1525 
z
" transform="scale(0.015625)"/>
       </defs>
       <use xlink:href="#SimHei-34"/>
       <use xlink:href="#SimHei-30" transform="translate(50 0)"/>
      </g>
     </g>
    </g>
    <g id="xtick_4">
     <g id="line2d_7">
      <path d="M 436.371125 530.67125 
L 436.371125 26.2 
" clip-path="url(#peb4cee69cc)" style="fill: none; stroke-dasharray: 2.96,1.28; stroke-dashoffset: 0; stroke: #b0b0b0; stroke-opacity: 0.3; stroke-width: 0.8"/>
     </g>
     <g id="line2d_8">
      <g>
       <use xlink:href="#meb4f73c278" x="436.371125" y="530.67125" style="stroke: #000000; stroke-width: 0.8"/>
      </g>
     </g>
     <g id="text_4">
      <!-- 60 -->
      <g transform="translate(431.371125 544.54625) scale(0.1 -0.1)">
       <defs>
        <path id="SimHei-36" d="M 250 1612 
Q 275 1975 387 2225 
Q 500 2475 725 2850 
L 1750 4450 
L 2325 4450 
L 1275 2800 
Q 1950 2975 2350 2750 
Q 2750 2525 2887 2237 
Q 3025 1950 3037 1612 
Q 3050 1275 2937 950 
Q 2825 625 2537 362 
Q 2250 100 1737 75 
Q 1225 50 862 262 
Q 500 475 362 862 
Q 225 1250 250 1612 
z
M 1025 787 
Q 1250 550 1625 525 
Q 2000 500 2250 775 
Q 2500 1050 2500 1575 
Q 2500 2100 2187 2300 
Q 1875 2500 1487 2450 
Q 1100 2400 925 2075 
Q 750 1750 775 1387 
Q 800 1025 1025 787 
z
" transform="scale(0.015625)"/>
       </defs>
       <use xlink:href="#SimHei-36"/>
       <use xlink:href="#SimHei-30" transform="translate(50 0)"/>
      </g>
     </g>
    </g>
    <g id="xtick_5">
     <g id="line2d_9">
      <path d="M 567.058375 530.67125 
L 567.058375 26.2 
" clip-path="url(#peb4cee69cc)" style="fill: none; stroke-dasharray: 2.96,1.28; stroke-dashoffset: 0; stroke: #b0b0b0; stroke-opacity: 0.3; stroke-width: 0.8"/>
     </g>
     <g id="line2d_10">
      <g>
       <use xlink:href="#meb4f73c278" x="567.058375" y="530.67125" style="stroke: #000000; stroke-width: 0.8"/>
      </g>
     </g>
     <g id="text_5">
      <!-- 80 -->
      <g transform="translate(562.058375 544.54625) scale(0.1 -0.1)">
       <defs>
        <path id="SimHei-38" d="M 175 1375 
Q 175 1675 325 1962 
Q 475 2250 825 2425 
Q 525 2600 425 2812 
Q 325 3025 312 3300 
Q 300 3575 387 3775 
Q 475 3975 650 4150 
Q 825 4325 1037 4387 
Q 1250 4450 1500 4450 
Q 1750 4450 1950 4400 
Q 2150 4350 2375 4187 
Q 2600 4025 2700 3725 
Q 2800 3425 2687 3025 
Q 2575 2625 2100 2400 
Q 2525 2275 2700 2012 
Q 2875 1750 2875 1375 
Q 2875 1000 2762 775 
Q 2650 550 2512 400 
Q 2375 250 2137 162 
Q 1900 75 1537 75 
Q 1175 75 912 162 
Q 650 250 475 425 
Q 300 600 237 837 
Q 175 1075 175 1375 
z
M 687 1400 
Q 675 1100 787 875 
Q 900 650 1200 587 
Q 1500 525 1825 600 
Q 2150 675 2275 950 
Q 2400 1225 2362 1500 
Q 2325 1775 2050 1962 
Q 1775 2150 1450 2125 
Q 1125 2100 912 1900 
Q 700 1700 687 1400 
z
M 775 3350 
Q 775 3100 950 2875 
Q 1125 2650 1500 2650 
Q 1875 2650 2062 2875 
Q 2250 3100 2237 3412 
Q 2225 3725 2012 3875 
Q 1800 4025 1437 4000 
Q 1075 3975 925 3787 
Q 775 3600 775 3350 
z
" transform="scale(0.015625)"/>
       </defs>
       <use xlink:href="#SimHei-38"/>
       <use xlink:href="#SimHei-30" transform="translate(50 0)"/>
      </g>
     </g>
    </g>
    <g id="xtick_6">
     <g id="line2d_11">
      <path d="M 697.745625 530.67125 
L 697.745625 26.2 
" clip-path="url(#peb4cee69cc)" style="fill: none; stroke-dasharray: 2.96,1.28; stroke-dashoffset: 0; stroke: #b0b0b0; stroke-opacity: 0.3; stroke-width: 0.8"/>
     </g>
     <g id="line2d_12">
      <g>
       <use xlink:href="#meb4f73c278" x="697.745625" y="530.67125" style="stroke: #000000; stroke-width: 0.8"/>
      </g>
     </g>
     <g id="text_6">
      <!-- 100 -->
      <g transform="translate(690.245625 544.54625) scale(0.1 -0.1)">
       <defs>
        <path id="SimHei-31" d="M 1400 3600 
Q 1075 3275 575 2975 
L 575 3450 
Q 1200 3875 1600 4450 
L 1900 4450 
L 1900 150 
L 1400 150 
L 1400 3600 
z
" transform="scale(0.015625)"/>
       </defs>
       <use xlink:href="#SimHei-31"/>
       <use xlink:href="#SimHei-30" transform="translate(50 0)"/>
       <use xlink:href="#SimHei-30" transform="translate(100 0)"/>
      </g>
     </g>
    </g>
    <g id="text_7">
     <!-- 液相NaCl/% -->
     <g transform="translate(341.0275 559.405625) scale(0.12 -0.12)">
      <defs>
       <path id="SimHei-6db2" d="M 4800 3775 
Q 4625 3575 4500 3250 
L 5950 3250 
Q 5825 2550 5587 1737 
Q 5350 925 5025 500 
Q 5600 0 6200 -150 
Q 5875 -375 5800 -600 
Q 5175 -275 4700 175 
Q 4300 -200 3675 -600 
Q 3525 -375 3175 -200 
Q 3875 25 4400 525 
Q 4100 875 3725 1725 
Q 3650 1575 3500 1325 
Q 3325 1525 3100 1700 
Q 3375 1975 3725 2700 
Q 4075 3425 4200 3950 
Q 4450 3850 4800 3775 
z
M 3600 3725 
Q 3475 3600 3337 3337 
Q 3200 3075 2975 2675 
L 2975 250 
Q 2975 -100 3000 -625 
L 2475 -625 
Q 2500 -25 2500 325 
L 2500 2100 
Q 2300 1825 2000 1475 
Q 1875 1650 1625 1850 
Q 1925 2100 2200 2450 
Q 2475 2800 2712 3225 
Q 2950 3650 3025 3925 
Q 3350 3775 3600 3725 
z
M 4275 5300 
Q 4400 4975 4500 4550 
L 5275 4550 
Q 5650 4550 6100 4600 
L 6100 4125 
Q 5750 4150 5275 4150 
L 3025 4150 
Q 2625 4150 2175 4100 
L 2175 4600 
Q 2500 4550 2875 4550 
L 3925 4550 
Q 3875 4850 3725 5175 
Q 4025 5225 4275 5300 
z
M 4025 2200 
Q 4300 1400 4700 850 
Q 5125 1375 5375 2825 
L 4300 2825 
Q 4150 2475 4025 2200 
z
M 1550 1600 
Q 1325 875 1175 287 
Q 1025 -300 925 -625 
Q 650 -450 300 -375 
Q 500 -50 687 450 
Q 875 950 1100 1925 
Q 1325 1725 1550 1600 
z
M 550 3500 
Q 1200 3150 1625 2925 
Q 1400 2650 1300 2450 
Q 875 2725 275 3050 
Q 425 3300 550 3500 
z
M 975 5025 
Q 1400 4675 1950 4275 
Q 1775 4100 1600 3850 
Q 1175 4250 675 4625 
Q 850 4825 975 5025 
z
M 4850 2500 
Q 4925 2150 4975 1750 
Q 4700 1725 4525 1675 
Q 4475 2100 4400 2425 
Q 4575 2475 4850 2500 
z
" transform="scale(0.015625)"/>
       <path id="SimHei-76f8" d="M 5900 4825 
Q 5875 4225 5875 3575 
L 5875 750 
Q 5875 75 5900 -575 
L 5400 -575 
L 5400 -100 
L 3525 -100 
L 3525 -625 
L 3025 -625 
Q 3050 125 3050 675 
L 3050 3600 
Q 3050 4250 3025 4825 
L 5900 4825 
z
M 1400 3825 
Q 1400 4850 1375 5200 
L 1925 5200 
Q 1900 4825 1900 3825 
Q 2500 3825 2825 3850 
L 2825 3375 
Q 2525 3400 1900 3400 
L 1900 2450 
Q 2025 2575 2175 2750 
Q 2625 2275 2950 1825 
Q 2800 1725 2575 1500 
Q 2300 1975 1900 2375 
L 1900 475 
Q 1900 50 1925 -625 
L 1375 -625 
Q 1400 50 1400 450 
L 1400 2150 
Q 1075 1225 650 675 
Q 475 950 300 1100 
Q 475 1250 800 1887 
Q 1125 2525 1300 3400 
Q 750 3400 400 3375 
L 400 3850 
Q 850 3825 1400 3825 
z
M 5400 325 
L 5400 1475 
L 3525 1475 
L 3525 325 
L 5400 325 
z
M 5400 3300 
L 5400 4400 
L 3525 4400 
L 3525 3300 
L 5400 3300 
z
M 5400 1900 
L 5400 2900 
L 3525 2900 
L 3525 1900 
L 5400 1900 
z
" transform="scale(0.015625)"/>
       <path id="SimHei-4e" d="M 2850 125 
L 2225 125 
L 850 3225 
L 825 3225 
L 825 125 
L 250 125 
L 250 4400 
L 875 4400 
L 2250 1300 
L 2275 1300 
L 2275 4400 
L 2850 4400 
L 2850 125 
z
" transform="scale(0.015625)"/>
       <path id="SimHei-61" d="M 2875 125 
L 2275 125 
Q 2225 175 2200 262 
Q 2175 350 2175 475 
Q 2000 275 1750 175 
Q 1500 75 1225 75 
Q 825 75 550 275 
Q 275 475 275 850 
Q 275 1225 525 1450 
Q 775 1675 1300 1750 
Q 1650 1800 1912 1875 
Q 2175 1950 2175 2075 
Q 2175 2225 2062 2375 
Q 1950 2525 1575 2525 
Q 1275 2525 1137 2412 
Q 1000 2300 950 2100 
L 400 2100 
Q 450 2500 762 2737 
Q 1075 2975 1575 2975 
Q 2125 2975 2400 2725 
Q 2675 2475 2675 2025 
L 2675 650 
Q 2675 500 2725 375 
Q 2775 250 2875 125 
z
M 2175 1050 
L 2175 1550 
Q 2025 1500 1887 1462 
Q 1750 1425 1425 1375 
Q 1050 1325 937 1200 
Q 825 1075 825 900 
Q 825 750 937 637 
Q 1050 525 1275 525 
Q 1500 525 1762 650 
Q 2025 775 2175 1050 
z
" transform="scale(0.015625)"/>
       <path id="SimHei-43" d="M 2975 1825 
Q 2950 875 2575 475 
Q 2200 75 1675 75 
Q 1075 75 650 562 
Q 225 1050 225 2125 
Q 225 3300 637 3875 
Q 1050 4450 1700 4450 
Q 2250 4450 2612 4037 
Q 2975 3625 2950 2875 
L 2400 2875 
Q 2400 3425 2225 3700 
Q 2050 3975 1700 3975 
Q 1300 3975 1062 3562 
Q 825 3150 825 2175 
Q 825 1275 1062 912 
Q 1300 550 1675 550 
Q 1950 550 2175 812 
Q 2400 1075 2400 1825 
L 2975 1825 
z
" transform="scale(0.015625)"/>
       <path id="SimHei-6c" d="M 1825 125 
L 1325 125 
L 1325 4400 
L 1825 4400 
L 1825 125 
z
" transform="scale(0.015625)"/>
       <path id="SimHei-2f" d="M 3000 4550 
L 350 -175 
L 100 -25 
L 2750 4700 
L 3000 4550 
z
" transform="scale(0.015625)"/>
       <path id="SimHei-25" d="M 1400 3325 
Q 1400 2600 1187 2400 
Q 975 2200 775 2200 
Q 575 2200 362 2400 
Q 150 2600 150 3325 
Q 150 4050 362 4250 
Q 575 4450 775 4450 
Q 975 4450 1187 4250 
Q 1400 4050 1400 3325 
z
M 2625 4375 
L 700 75 
L 500 150 
L 2425 4450 
L 2625 4375 
z
M 2975 1200 
Q 2975 475 2762 275 
Q 2550 75 2350 75 
Q 2150 75 1937 275 
Q 1725 475 1725 1200 
Q 1725 1925 1937 2125 
Q 2150 2325 2350 2325 
Q 2550 2325 2762 2125 
Q 2975 1925 2975 1200 
z
M 1000 3325 
Q 1000 3775 950 3925 
Q 900 4075 775 4075 
Q 650 4075 600 3925 
Q 550 3775 550 3325 
Q 550 2875 600 2725 
Q 650 2575 775 2575 
Q 900 2575 950 2725 
Q 1000 2875 1000 3325 
z
M 2575 1200 
Q 2575 1650 2525 1800 
Q 2475 1950 2350 1950 
Q 2225 1950 2175 1800 
Q 2125 1650 2125 1200 
Q 2125 750 2175 600 
Q 2225 450 2350 450 
Q 2475 450 2525 600 
Q 2575 750 2575 1200 
z
" transform="scale(0.015625)"/>
      </defs>
      <use xlink:href="#SimHei-6db2"/>
      <use xlink:href="#SimHei-76f8" transform="translate(100 0)"/>
      <use xlink:href="#SimHei-4e" transform="translate(200 0)"/>
      <use xlink:href="#SimHei-61" transform="translate(250 0)"/>
      <use xlink:href="#SimHei-43" transform="translate(300 0)"/>
      <use xlink:href="#SimHei-6c" transform="translate(350 0)"/>
      <use xlink:href="#SimHei-2f" transform="translate(400 0)"/>
      <use xlink:href="#SimHei-25" transform="translate(450 0)"/>
     </g>
    </g>
   </g>
   <g id="matplotlib.axis_2">
    <g id="ytick_1">
     <g id="line2d_13">
      <path d="M 44.309375 530.67125 
L 697.745625 530.67125 
" clip-path="url(#peb4cee69cc)" style="fill: none; stroke-dasharray: 2.96,1.28; stroke-dashoffset: 0; stroke: #b0b0b0; stroke-opacity: 0.3; stroke-width: 0.8"/>
     </g>
     <g id="line2d_14">
      <defs>
       <path id="mdea7ec4fbf" d="M 0 0 
L -3.5 0 
" style="stroke: #000000; stroke-width: 0.8"/>
      </defs>
      <g>
       <use xlink:href="#mdea7ec4fbf" x="44.309375" y="530.67125" style="stroke: #000000; stroke-width: 0.8"/>
      </g>
     </g>
     <g id="text_8">
      <!-- 0 -->
      <g transform="translate(32.309375 534.10875) scale(0.1 -0.1)">
       <use xlink:href="#SimHei-30"/>
      </g>
     </g>
    </g>
    <g id="ytick_2">
     <g id="line2d_15">
      <path d="M 44.309375 429.777 
L 697.745625 429.777 
" clip-path="url(#peb4cee69cc)" style="fill: none; stroke-dasharray: 2.96,1.28; stroke-dashoffset: 0; stroke: #b0b0b0; stroke-opacity: 0.3; stroke-width: 0.8"/>
     </g>
     <g id="line2d_16">
      <g>
       <use xlink:href="#mdea7ec4fbf" x="44.309375" y="429.777" style="stroke: #000000; stroke-width: 0.8"/>
      </g>
     </g>
     <g id="text_9">
      <!-- 20 -->
      <g transform="translate(27.309375 433.2145) scale(0.1 -0.1)">
       <use xlink:href="#SimHei-32"/>
       <use xlink:href="#SimHei-30" transform="translate(50 0)"/>
      </g>
     </g>
    </g>
    <g id="ytick_3">
     <g id="line2d_17">
      <path d="M 44.309375 328.88275 
L 697.745625 328.88275 
" clip-path="url(#peb4cee69cc)" style="fill: none; stroke-dasharray: 2.96,1.28; stroke-dashoffset: 0; stroke: #b0b0b0; stroke-opacity: 0.3; stroke-width: 0.8"/>
     </g>
     <g id="line2d_18">
      <g>
       <use xlink:href="#mdea7ec4fbf" x="44.309375" y="328.88275" style="stroke: #000000; stroke-width: 0.8"/>
      </g>
     </g>
     <g id="text_10">
      <!-- 40 -->
      <g transform="translate(27.309375 332.32025) scale(0.1 -0.1)">
       <use xlink:href="#SimHei-34"/>
       <use xlink:href="#SimHei-30" transform="translate(50 0)"/>
      </g>
     </g>
    </g>
    <g id="ytick_4">
     <g id="line2d_19">
      <path d="M 44.309375 227.9885 
L 697.745625 227.9885 
" clip-path="url(#peb4cee69cc)" style="fill: none; stroke-dasharray: 2.96,1.28; stroke-dashoffset: 0; stroke: #b0b0b0; stroke-opacity: 0.3; stroke-width: 0.8"/>
     </g>
     <g id="line2d_20">
      <g>
       <use xlink:href="#mdea7ec4fbf" x="44.309375" y="227.9885" style="stroke: #000000; stroke-width: 0.8"/>
      </g>
     </g>
     <g id="text_11">
      <!-- 60 -->
      <g transform="translate(27.309375 231.426) scale(0.1 -0.1)">
       <use xlink:href="#SimHei-36"/>
       <use xlink:href="#SimHei-30" transform="translate(50 0)"/>
      </g>
     </g>
    </g>
    <g id="ytick_5">
     <g id="line2d_21">
      <path d="M 44.309375 127.09425 
L 697.745625 127.09425 
" clip-path="url(#peb4cee69cc)" style="fill: none; stroke-dasharray: 2.96,1.28; stroke-dashoffset: 0; stroke: #b0b0b0; stroke-opacity: 0.3; stroke-width: 0.8"/>
     </g>
     <g id="line2d_22">
      <g>
       <use xlink:href="#mdea7ec4fbf" x="44.309375" y="127.09425" style="stroke: #000000; stroke-width: 0.8"/>
      </g>
     </g>
     <g id="text_12">
      <!-- 80 -->
      <g transform="translate(27.309375 130.53175) scale(0.1 -0.1)">
       <use xlink:href="#SimHei-38"/>
       <use xlink:href="#SimHei-30" transform="translate(50 0)"/>
      </g>
     </g>
    </g>
    <g id="ytick_6">
     <g id="line2d_23">
      <path d="M 44.309375 26.2 
L 697.745625 26.2 
" clip-path="url(#peb4cee69cc)" style="fill: none; stroke-dasharray: 2.96,1.28; stroke-dashoffset: 0; stroke: #b0b0b0; stroke-opacity: 0.3; stroke-width: 0.8"/>
     </g>
     <g id="line2d_24">
      <g>
       <use xlink:href="#mdea7ec4fbf" x="44.309375" y="26.2" style="stroke: #000000; stroke-width: 0.8"/>
      </g>
     </g>
     <g id="text_13">
      <!-- 100 -->
      <g transform="translate(22.309375 29.6375) scale(0.1 -0.1)">
       <use xlink:href="#SimHei-31"/>
       <use xlink:href="#SimHei-30" transform="translate(50 0)"/>
       <use xlink:href="#SimHei-30" transform="translate(100 0)"/>
      </g>
     </g>
    </g>
    <g id="text_14">
     <!-- 液相KCl/% -->
     <g transform="translate(16.809375 305.435625) rotate(-90) scale(0.12 -0.12)">
      <defs>
       <path id="SimHei-4b" d="M 3050 125 
L 2400 125 
L 1250 2250 
L 850 1725 
L 850 125 
L 275 125 
L 275 4400 
L 850 4400 
L 850 2550 
L 2275 4400 
L 2950 4400 
L 1625 2725 
L 3050 125 
z
" transform="scale(0.015625)"/>
      </defs>
      <use xlink:href="#SimHei-6db2"/>
      <use xlink:href="#SimHei-76f8" transform="translate(100 0)"/>
      <use xlink:href="#SimHei-4b" transform="translate(200 0)"/>
      <use xlink:href="#SimHei-43" transform="translate(250 0)"/>
      <use xlink:href="#SimHei-6c" transform="translate(300 0)"/>
      <use xlink:href="#SimHei-2f" transform="translate(350 0)"/>
      <use xlink:href="#SimHei-25" transform="translate(400 0)"/>
     </g>
    </g>
   </g>
   <g id="line2d_25">
    <path d="M 44.309375 530.67125 
L 44.309375 26.2 
" clip-path="url(#peb4cee69cc)" style="fill: none; stroke: #000000; stroke-width: 1.5; stroke-linecap: square"/>
   </g>
   <g id="line2d_26">
    <path d="M 44.309375 26.2 
L 697.745625 530.67125 
" clip-path="url(#peb4cee69cc)" style="fill: none; stroke: #000000; stroke-width: 1.5; stroke-linecap: square"/>
   </g>
   <g id="line2d_27">
    <path d="M 44.309375 530.67125 
L 697.745625 530.67125 
" clip-path="url(#peb4cee69cc)" style="fill: none; stroke: #000000; stroke-width: 1.5; stroke-linecap: square"/>
   </g>
   <g id="line2d_28">
    <path d="M 190.352377 493.592613 
L 44.309375 26.2 
" clip-path="url(#peb4cee69cc)" style="fill: none; stroke: #8000ff; stroke-opacity: 0.7; stroke-width: 1.5; stroke-linecap: square"/>
   </g>
   <g id="line2d_29">
    <path d="M 190.352377 493.592613 
L 697.745625 530.67125 
" clip-path="url(#peb4cee69cc)" style="fill: none; stroke: #8000ff; stroke-opacity: 0.7; stroke-width: 1.5; stroke-linecap: square"/>
   </g>
   <g id="line2d_30">
    <path d="M 216.163109 530.67125 
L 198.193612 505.447687 
L 190.352377 493.592613 
L 174.996625 487.791194 
L 142.324813 474.17047 
L 109.653 458.531861 
L 76.981188 440.370896 
L 44.309375 420.192046 
" clip-path="url(#peb4cee69cc)" style="fill: none; stroke: #8000ff; stroke-width: 2; stroke-linecap: square"/>
    <defs>
     <path id="m61380b258f" d="M 0 3 
C 0.795609 3 1.55874 2.683901 2.12132 2.12132 
C 2.683901 1.55874 3 0.795609 3 0 
C 3 -0.795609 2.683901 -1.55874 2.12132 -2.12132 
C 1.55874 -2.683901 0.795609 -3 0 -3 
C -0.795609 -3 -1.55874 -2.683901 -2.12132 -2.12132 
C -2.683901 -1.55874 -3 -0.795609 -3 0 
C -3 0.795609 -2.683901 1.55874 -2.12132 2.12132 
C -1.55874 2.683901 -0.795609 3 0 3 
z
" style="stroke: #8000ff"/>
    </defs>
    <g clip-path="url(#peb4cee69cc)">
     <use xlink:href="#m61380b258f" x="216.163109" y="530.67125" style="fill: #8000ff; stroke: #8000ff"/>
     <use xlink:href="#m61380b258f" x="198.193612" y="505.447687" style="fill: #8000ff; stroke: #8000ff"/>
     <use xlink:href="#m61380b258f" x="190.352377" y="493.592613" style="fill: #8000ff; stroke: #8000ff"/>
     <use xlink:href="#m61380b258f" x="174.996625" y="487.791194" style="fill: #8000ff; stroke: #8000ff"/>
     <use xlink:href="#m61380b258f" x="142.324813" y="474.17047" style="fill: #8000ff; stroke: #8000ff"/>
     <use xlink:href="#m61380b258f" x="109.653" y="458.531861" style="fill: #8000ff; stroke: #8000ff"/>
     <use xlink:href="#m61380b258f" x="76.981188" y="440.370896" style="fill: #8000ff; stroke: #8000ff"/>
     <use xlink:href="#m61380b258f" x="44.309375" y="420.192046" style="fill: #8000ff; stroke: #8000ff"/>
    </g>
   </g>
   <g id="line2d_31">
    <path d="M 177.61037 474.422706 
L 44.309375 26.2 
" clip-path="url(#peb4cee69cc)" style="fill: none; stroke: #00b5eb; stroke-opacity: 0.7; stroke-width: 1.5; stroke-linecap: square"/>
   </g>
   <g id="line2d_32">
    <path d="M 177.61037 474.422706 
L 697.745625 530.67125 
" clip-path="url(#peb4cee69cc)" style="fill: none; stroke: #00b5eb; stroke-opacity: 0.7; stroke-width: 1.5; stroke-linecap: square"/>
   </g>
   <g id="line2d_33">
    <path d="M 217.143263 530.67125 
L 199.500484 505.447687 
L 181.530987 480.224125 
L 177.61037 474.422706 
L 174.996625 473.665999 
L 142.324813 457.522919 
L 109.653 438.857482 
L 76.981188 419.183104 
L 44.309375 397.238604 
" clip-path="url(#peb4cee69cc)" style="fill: none; stroke: #00b5eb; stroke-width: 2; stroke-linecap: square"/>
    <defs>
     <path id="mbc4710bcab" d="M 0 3 
C 0.795609 3 1.55874 2.683901 2.12132 2.12132 
C 2.683901 1.55874 3 0.795609 3 0 
C 3 -0.795609 2.683901 -1.55874 2.12132 -2.12132 
C 1.55874 -2.683901 0.795609 -3 0 -3 
C -0.795609 -3 -1.55874 -2.683901 -2.12132 -2.12132 
C -2.683901 -1.55874 -3 -0.795609 -3 0 
C -3 0.795609 -2.683901 1.55874 -2.12132 2.12132 
C -1.55874 2.683901 -0.795609 3 0 3 
z
" style="stroke: #00b5eb"/>
    </defs>
    <g clip-path="url(#peb4cee69cc)">
     <use xlink:href="#mbc4710bcab" x="217.143263" y="530.67125" style="fill: #00b5eb; stroke: #00b5eb"/>
     <use xlink:href="#mbc4710bcab" x="199.500484" y="505.447687" style="fill: #00b5eb; stroke: #00b5eb"/>
     <use xlink:href="#mbc4710bcab" x="181.530987" y="480.224125" style="fill: #00b5eb; stroke: #00b5eb"/>
     <use xlink:href="#mbc4710bcab" x="177.61037" y="474.422706" style="fill: #00b5eb; stroke: #00b5eb"/>
     <use xlink:href="#mbc4710bcab" x="174.996625" y="473.665999" style="fill: #00b5eb; stroke: #00b5eb"/>
     <use xlink:href="#mbc4710bcab" x="142.324813" y="457.522919" style="fill: #00b5eb; stroke: #00b5eb"/>
     <use xlink:href="#mbc4710bcab" x="109.653" y="438.857482" style="fill: #00b5eb; stroke: #00b5eb"/>
     <use xlink:href="#mbc4710bcab" x="76.981188" y="419.183104" style="fill: #00b5eb; stroke: #00b5eb"/>
     <use xlink:href="#mbc4710bcab" x="44.309375" y="397.238604" style="fill: #00b5eb; stroke: #00b5eb"/>
    </g>
   </g>
   <g id="line2d_34">
    <path d="M 169.115699 456.513976 
L 44.309375 26.2 
" clip-path="url(#peb4cee69cc)" style="fill: none; stroke: #80ffb4; stroke-opacity: 0.7; stroke-width: 1.5; stroke-linecap: square"/>
   </g>
   <g id="line2d_35">
    <path d="M 169.115699 456.513976 
L 697.745625 530.67125 
" clip-path="url(#peb4cee69cc)" style="fill: none; stroke: #80ffb4; stroke-opacity: 0.7; stroke-width: 1.5; stroke-linecap: square"/>
   </g>
   <g id="line2d_36">
    <path d="M 220.083726 530.67125 
L 201.787511 505.447687 
L 184.144732 480.224125 
L 169.115699 456.513976 
L 142.324813 441.88431 
L 109.653 422.209931 
L 76.981188 401.52661 
L 44.309375 378.825404 
" clip-path="url(#peb4cee69cc)" style="fill: none; stroke: #80ffb4; stroke-width: 2; stroke-linecap: square"/>
    <defs>
     <path id="m3d4d4997ab" d="M 0 3 
C 0.795609 3 1.55874 2.683901 2.12132 2.12132 
C 2.683901 1.55874 3 0.795609 3 0 
C 3 -0.795609 2.683901 -1.55874 2.12132 -2.12132 
C 1.55874 -2.683901 0.795609 -3 0 -3 
C -0.795609 -3 -1.55874 -2.683901 -2.12132 -2.12132 
C -2.683901 -1.55874 -3 -0.795609 -3 0 
C -3 0.795609 -2.683901 1.55874 -2.12132 2.12132 
C -1.55874 2.683901 -0.795609 3 0 3 
z
" style="stroke: #80ffb4"/>
    </defs>
    <g clip-path="url(#peb4cee69cc)">
     <use xlink:href="#m3d4d4997ab" x="220.083726" y="530.67125" style="fill: #80ffb4; stroke: #80ffb4"/>
     <use xlink:href="#m3d4d4997ab" x="201.787511" y="505.447687" style="fill: #80ffb4; stroke: #80ffb4"/>
     <use xlink:href="#m3d4d4997ab" x="184.144732" y="480.224125" style="fill: #80ffb4; stroke: #80ffb4"/>
     <use xlink:href="#m3d4d4997ab" x="169.115699" y="456.513976" style="fill: #80ffb4; stroke: #80ffb4"/>
     <use xlink:href="#m3d4d4997ab" x="142.324813" y="441.88431" style="fill: #80ffb4; stroke: #80ffb4"/>
     <use xlink:href="#m3d4d4997ab" x="109.653" y="422.209931" style="fill: #80ffb4; stroke: #80ffb4"/>
     <use xlink:href="#m3d4d4997ab" x="76.981188" y="401.52661" style="fill: #80ffb4; stroke: #80ffb4"/>
     <use xlink:href="#m3d4d4997ab" x="44.309375" y="378.825404" style="fill: #80ffb4; stroke: #80ffb4"/>
    </g>
   </g>
   <g id="line2d_37">
    <path d="M 160.294309 438.100776 
L 44.309375 26.2 
" clip-path="url(#peb4cee69cc)" style="fill: none; stroke: #ffb360; stroke-opacity: 0.7; stroke-width: 1.5; stroke-linecap: square"/>
   </g>
   <g id="line2d_38">
    <path d="M 160.294309 438.100776 
L 697.745625 530.67125 
" clip-path="url(#peb4cee69cc)" style="fill: none; stroke: #ffb360; stroke-opacity: 0.7; stroke-width: 1.5; stroke-linecap: square"/>
   </g>
   <g id="line2d_39">
    <path d="M 223.677626 530.67125 
L 205.708129 505.447687 
L 188.06535 480.224125 
L 171.076008 455.000562 
L 160.294309 438.100776 
L 142.324813 428.263586 
L 109.653 408.084736 
L 76.981188 386.392472 
L 44.309375 363.186795 
" clip-path="url(#peb4cee69cc)" style="fill: none; stroke: #ffb360; stroke-width: 2; stroke-linecap: square"/>
    <defs>
     <path id="m89ce4c6748" d="M 0 3 
C 0.795609 3 1.55874 2.683901 2.12132 2.12132 
C 2.683901 1.55874 3 0.795609 3 0 
C 3 -0.795609 2.683901 -1.55874 2.12132 -2.12132 
C 1.55874 -2.683901 0.795609 -3 0 -3 
C -0.795609 -3 -1.55874 -2.683901 -2.12132 -2.12132 
C -2.683901 -1.55874 -3 -0.795609 -3 0 
C -3 0.795609 -2.683901 1.55874 -2.12132 2.12132 
C -1.55874 2.683901 -0.795609 3 0 3 
z
" style="stroke: #ffb360"/>
    </defs>
    <g clip-path="url(#peb4cee69cc)">
     <use xlink:href="#m89ce4c6748" x="223.677626" y="530.67125" style="fill: #ffb360; stroke: #ffb360"/>
     <use xlink:href="#m89ce4c6748" x="205.708129" y="505.447687" style="fill: #ffb360; stroke: #ffb360"/>
     <use xlink:href="#m89ce4c6748" x="188.06535" y="480.224125" style="fill: #ffb360; stroke: #ffb360"/>
     <use xlink:href="#m89ce4c6748" x="171.076008" y="455.000562" style="fill: #ffb360; stroke: #ffb360"/>
     <use xlink:href="#m89ce4c6748" x="160.294309" y="438.100776" style="fill: #ffb360; stroke: #ffb360"/>
     <use xlink:href="#m89ce4c6748" x="142.324813" y="428.263586" style="fill: #ffb360; stroke: #ffb360"/>
     <use xlink:href="#m89ce4c6748" x="109.653" y="408.084736" style="fill: #ffb360; stroke: #ffb360"/>
     <use xlink:href="#m89ce4c6748" x="76.981188" y="386.392472" style="fill: #ffb360; stroke: #ffb360"/>
     <use xlink:href="#m89ce4c6748" x="44.309375" y="363.186795" style="fill: #ffb360; stroke: #ffb360"/>
    </g>
   </g>
   <g id="line2d_40">
    <path d="M 154.086665 421.200989 
L 44.309375 26.2 
" clip-path="url(#peb4cee69cc)" style="fill: none; stroke: #ff0000; stroke-opacity: 0.7; stroke-width: 1.5; stroke-linecap: square"/>
   </g>
   <g id="line2d_41">
    <path d="M 154.086665 421.200989 
L 697.745625 530.67125 
" clip-path="url(#peb4cee69cc)" style="fill: none; stroke: #ff0000; stroke-opacity: 0.7; stroke-width: 1.5; stroke-linecap: square"/>
   </g>
   <g id="line2d_42">
    <path d="M 228.905116 530.67125 
L 210.282182 505.447687 
L 192.639404 480.224125 
L 175.650061 455.000562 
L 159.314155 429.777 
L 154.086665 421.200989 
L 142.324813 414.642862 
L 109.653 393.959541 
L 76.981188 372.267277 
L 44.309375 349.566071 
" clip-path="url(#peb4cee69cc)" style="fill: none; stroke: #ff0000; stroke-width: 2; stroke-linecap: square"/>
    <defs>
     <path id="m3943557dd3" d="M 0 3 
C 0.795609 3 1.55874 2.683901 2.12132 2.12132 
C 2.683901 1.55874 3 0.795609 3 0 
C 3 -0.795609 2.683901 -1.55874 2.12132 -2.12132 
C 1.55874 -2.683901 0.795609 -3 0 -3 
C -0.795609 -3 -1.55874 -2.683901 -2.12132 -2.12132 
C -2.683901 -1.55874 -3 -0.795609 -3 0 
C -3 0.795609 -2.683901 1.55874 -2.12132 2.12132 
C -1.55874 2.683901 -0.795609 3 0 3 
z
" style="stroke: #ff0000"/>
    </defs>
    <g clip-path="url(#peb4cee69cc)">
     <use xlink:href="#m3943557dd3" x="228.905116" y="530.67125" style="fill: #ff0000; stroke: #ff0000"/>
     <use xlink:href="#m3943557dd3" x="210.282182" y="505.447687" style="fill: #ff0000; stroke: #ff0000"/>
     <use xlink:href="#m3943557dd3" x="192.639404" y="480.224125" style="fill: #ff0000; stroke: #ff0000"/>
     <use xlink:href="#m3943557dd3" x="175.650061" y="455.000562" style="fill: #ff0000; stroke: #ff0000"/>
     <use xlink:href="#m3943557dd3" x="159.314155" y="429.777" style="fill: #ff0000; stroke: #ff0000"/>
     <use xlink:href="#m3943557dd3" x="154.086665" y="421.200989" style="fill: #ff0000; stroke: #ff0000"/>
     <use xlink:href="#m3943557dd3" x="142.324813" y="414.642862" style="fill: #ff0000; stroke: #ff0000"/>
     <use xlink:href="#m3943557dd3" x="109.653" y="393.959541" style="fill: #ff0000; stroke: #ff0000"/>
     <use xlink:href="#m3943557dd3" x="76.981188" y="372.267277" style="fill: #ff0000; stroke: #ff0000"/>
     <use xlink:href="#m3943557dd3" x="44.309375" y="349.566071" style="fill: #ff0000; stroke: #ff0000"/>
    </g>
   </g>
   <g id="patch_3">
    <path d="M 44.309375 530.67125 
L 44.309375 26.2 
" style="fill: none; stroke: #000000; stroke-width: 0.8; stroke-linejoin: miter; stroke-linecap: square"/>
   </g>
   <g id="patch_4">
    <path d="M 697.745625 530.67125 
L 697.745625 26.2 
" style="fill: none; stroke: #000000; stroke-width: 0.8; stroke-linejoin: miter; stroke-linecap: square"/>
   </g>
   <g id="patch_5">
    <path d="M 44.309375 530.67125 
L 697.745625 530.67125 
" style="fill: none; stroke: #000000; stroke-width: 0.8; stroke-linejoin: miter; stroke-linecap: square"/>
   </g>
   <g id="patch_6">
    <path d="M 44.309375 26.2 
L 697.745625 26.2 
" style="fill: none; stroke: #000000; stroke-width: 0.8; stroke-linejoin: miter; stroke-linecap: square"/>
   </g>
   <g id="text_15">
    <!-- NaCl -->
    <g transform="translate(86.782731 318.793325) scale(0.12 -0.12)">
     <use xlink:href="#SimHei-4e"/>
     <use xlink:href="#SimHei-61" transform="translate(50 0)"/>
     <use xlink:href="#SimHei-43" transform="translate(100 0)"/>
     <use xlink:href="#SimHei-6c" transform="translate(150 0)"/>
    </g>
   </g>
   <g id="text_16">
    <!-- KCl -->
    <g transform="translate(302.416694 522.095239) scale(0.12 -0.12)">
     <use xlink:href="#SimHei-4b"/>
     <use xlink:href="#SimHei-43" transform="translate(50 0)"/>
     <use xlink:href="#SimHei-6c" transform="translate(100 0)"/>
    </g>
   </g>
   <g id="text_17">
    <!-- 不同温度下的相图曲线整合 -->
    <g transform="translate(275.0275 20.2) scale(0.16 -0.16)">
     <defs>
      <path id="SimHei-4e0d" d="M 5975 4450 
Q 5525 4475 5200 4475 
L 3725 4475 
Q 3550 4125 3300 3700 
L 3300 575 
Q 3300 75 3325 -550 
L 2775 -550 
Q 2800 50 2800 575 
L 2800 3025 
Q 2025 1950 700 1050 
Q 500 1350 325 1475 
Q 825 1700 1650 2437 
Q 2475 3175 3175 4475 
L 1525 4475 
Q 1050 4475 525 4450 
L 525 4950 
Q 1275 4925 1675 4925 
L 5175 4925 
Q 5500 4925 5975 4950 
L 5975 4450 
z
M 5450 1125 
Q 4975 1725 3750 2975 
Q 3950 3150 4075 3325 
Q 4675 2775 5100 2362 
Q 5525 1950 5900 1550 
Q 5650 1350 5450 1125 
z
" transform="scale(0.015625)"/>
      <path id="SimHei-540c" d="M 5825 4925 
Q 5775 4550 5775 3975 
L 5775 -50 
Q 5775 -400 5525 -487 
Q 5275 -575 4725 -625 
Q 4725 -400 4525 -50 
Q 4925 -50 5100 -12 
Q 5275 25 5275 200 
L 5275 4450 
L 1150 4450 
L 1150 -600 
L 575 -600 
Q 600 -250 625 200 
L 625 3975 
Q 625 4575 600 4925 
L 5825 4925 
z
M 4375 2550 
Q 4325 2275 4325 1700 
Q 4325 1150 4375 725 
L 2025 725 
Q 2050 1175 2050 1750 
Q 2050 2325 2025 2550 
L 4375 2550 
z
M 4100 3750 
Q 4600 3750 4825 3775 
L 4825 3275 
Q 4575 3300 4075 3300 
L 2450 3300 
Q 1850 3300 1600 3275 
L 1600 3775 
Q 1875 3750 2475 3750 
L 4100 3750 
z
M 3875 1150 
L 3875 2150 
L 2525 2150 
L 2525 1150 
L 3875 1150 
z
" transform="scale(0.015625)"/>
      <path id="SimHei-6e29" d="M 5625 1925 
Q 5600 1475 5600 0 
Q 5875 0 6125 25 
L 6125 -425 
Q 5725 -400 5325 -400 
L 2275 -400 
Q 1825 -400 1400 -425 
L 1400 25 
Q 1725 0 2000 0 
Q 2000 1425 1975 1925 
L 5625 1925 
z
M 5325 2525 
L 2250 2525 
Q 2275 2950 2275 3675 
Q 2275 4400 2250 4925 
L 5325 4925 
L 5325 2525 
z
M 4875 2950 
L 4875 3500 
L 2725 3500 
L 2725 2950 
L 4875 2950 
z
M 1550 1775 
Q 1375 1300 1162 600 
Q 950 -100 800 -500 
Q 550 -275 275 -175 
Q 525 250 787 950 
Q 1050 1650 1100 2075 
Q 1300 1875 1550 1775 
z
M 4875 3925 
L 4875 4450 
L 2725 4450 
L 2725 3925 
L 4875 3925 
z
M 5150 0 
L 5150 1500 
L 4525 1500 
L 4525 0 
L 5150 0 
z
M 4075 0 
L 4075 1500 
L 3475 1500 
L 3475 0 
L 4075 0 
z
M 3075 0 
L 3075 1500 
L 2475 1500 
L 2475 0 
L 3075 0 
z
M 875 5050 
Q 1475 4600 1825 4325 
Q 1675 4100 1525 3925 
Q 1300 4200 575 4700 
Q 750 4875 875 5050 
z
M 575 3625 
Q 1000 3400 1550 2900 
Q 1350 2750 1225 2550 
Q 975 2825 325 3300 
Q 425 3400 575 3625 
z
" transform="scale(0.015625)"/>
      <path id="SimHei-5ea6" d="M 1750 1675 
Q 2450 1650 2875 1650 
L 5200 1650 
Q 4975 1250 4650 850 
Q 4325 450 4025 200 
Q 4350 50 4950 -50 
Q 5550 -150 6100 -150 
Q 5950 -300 5825 -650 
Q 5100 -550 4550 -412 
Q 4000 -275 3625 -100 
Q 3100 -325 2587 -462 
Q 2075 -600 1525 -675 
Q 1450 -475 1225 -250 
Q 1675 -250 2250 -125 
Q 2825 0 3250 200 
Q 2825 550 2400 1275 
L 1750 1250 
L 1750 1675 
z
M 2975 5075 
Q 3250 5150 3475 5250 
Q 3625 4975 3775 4525 
L 4700 4525 
Q 4975 4525 5700 4550 
L 5700 4100 
Q 5000 4125 4650 4125 
L 1375 4125 
Q 1375 3000 1350 2312 
Q 1325 1625 1212 950 
Q 1100 275 725 -525 
Q 500 -375 250 -300 
Q 650 400 762 1075 
Q 875 1750 887 2800 
Q 900 3850 875 4525 
L 3200 4525 
Q 3100 4850 2975 5075 
z
M 2475 3300 
Q 2475 3700 2450 3925 
L 2975 3925 
Q 2950 3725 2950 3300 
L 4300 3300 
Q 4300 3700 4275 3950 
L 4800 3950 
Q 4775 3650 4775 3300 
Q 5325 3300 5725 3325 
L 5725 2900 
Q 5350 2925 4775 2925 
Q 4775 2250 4800 1950 
L 2450 1950 
Q 2475 2350 2475 2925 
Q 2175 2925 1600 2900 
L 1600 3325 
Q 2175 3300 2475 3300 
z
M 4300 2350 
L 4300 2925 
L 2950 2925 
L 2950 2350 
L 4300 2350 
z
M 2875 1275 
Q 3200 775 3650 425 
Q 4025 700 4425 1275 
L 2900 1275 
L 2875 1275 
z
" transform="scale(0.015625)"/>
      <path id="SimHei-4e0b" d="M 5000 4700 
Q 5475 4700 5975 4725 
L 5975 4200 
Q 5425 4225 5000 4225 
L 3275 4225 
L 3275 375 
Q 3275 50 3300 -450 
L 2725 -450 
Q 2750 0 2750 375 
L 2750 4225 
L 1375 4225 
Q 875 4225 400 4200 
L 400 4725 
Q 875 4700 1375 4700 
L 5000 4700 
z
M 5650 1400 
Q 5400 1225 5200 1000 
Q 4800 1525 3650 2575 
L 4025 2950 
Q 4700 2400 5650 1400 
z
" transform="scale(0.015625)"/>
      <path id="SimHei-7684" d="M 2100 4975 
Q 1975 4750 1750 3950 
L 2875 3950 
Q 2850 3525 2850 2875 
L 2850 675 
Q 2850 300 2875 -400 
L 2375 -400 
L 2375 100 
L 1100 100 
L 1100 -450 
L 600 -450 
Q 625 350 625 550 
L 625 2850 
Q 625 3525 600 3950 
L 1325 3950 
Q 1450 4525 1525 5150 
Q 1875 5025 2100 4975 
z
M 5825 3075 
Q 5800 1550 5700 175 
Q 5650 -275 5225 -425 
Q 4800 -575 4275 -625 
Q 4250 -350 4050 -50 
Q 4550 -75 4837 -25 
Q 5125 25 5200 200 
Q 5275 375 5312 1225 
Q 5350 2075 5375 3600 
L 3925 3600 
Q 3725 3125 3350 2475 
Q 3175 2650 2925 2750 
Q 3150 3050 3350 3475 
Q 3550 3900 3700 4400 
Q 3850 4900 3875 5175 
Q 4225 5025 4475 4950 
Q 4350 4750 4262 4512 
Q 4175 4275 4075 4050 
L 5850 4050 
Q 5825 3525 5825 3075 
z
M 2375 525 
L 2375 1850 
L 1100 1850 
L 1100 525 
L 2375 525 
z
M 2375 2275 
L 2375 3525 
L 1100 3525 
L 1100 2275 
L 2375 2275 
z
M 4350 2050 
Q 4500 1750 4700 1275 
Q 4525 1200 4225 1025 
Q 4050 1500 3900 1837 
Q 3750 2175 3600 2400 
Q 3775 2500 4050 2650 
L 4350 2050 
z
" transform="scale(0.015625)"/>
      <path id="SimHei-56fe" d="M 5800 4975 
Q 5775 4350 5775 3600 
L 5775 925 
Q 5775 150 5800 -600 
L 5300 -600 
L 5300 -275 
L 1125 -275 
L 1125 -650 
L 625 -650 
Q 650 125 650 950 
L 650 3600 
Q 650 4325 625 4975 
L 5800 4975 
z
M 5300 150 
L 5300 4575 
L 1125 4575 
L 1125 150 
L 5300 150 
z
M 3225 4250 
Q 3075 4100 2950 3925 
L 4625 3925 
Q 4525 3700 4300 3375 
Q 4075 3050 3600 2600 
Q 4350 2225 5075 2150 
Q 4900 1925 4775 1675 
Q 3850 1950 3225 2350 
Q 2500 1875 1675 1650 
Q 1600 1875 1400 2075 
Q 2200 2200 2875 2600 
Q 2525 2925 2375 3150 
Q 2150 2900 1900 2650 
Q 1725 2850 1525 2950 
Q 1950 3300 2250 3737 
Q 2550 4175 2675 4475 
Q 2925 4350 3225 4250 
z
M 2450 1275 
Q 3550 950 4100 725 
Q 3975 525 3850 300 
Q 2825 725 2275 850 
Q 2375 1050 2450 1275 
z
M 2925 2050 
Q 3775 1700 4075 1600 
Q 3950 1400 3850 1150 
Q 3000 1550 2700 1650 
Q 2825 1825 2925 2050 
z
M 2625 3450 
Q 3000 3025 3275 2850 
Q 3600 3100 3875 3525 
L 2675 3525 
L 2625 3450 
z
" transform="scale(0.015625)"/>
      <path id="SimHei-66f2" d="M 5825 500 
Q 5825 -200 5850 -550 
L 5275 -550 
L 5275 -50 
L 1150 -50 
L 1150 -550 
L 575 -550 
Q 600 125 600 550 
L 600 2775 
Q 600 3425 575 3900 
L 2150 3900 
L 2150 4450 
Q 2125 4850 2125 5150 
L 2700 5150 
Q 2650 4825 2650 4475 
L 2650 3900 
L 3700 3900 
L 3700 4525 
Q 3700 4850 3675 5175 
L 4250 5175 
Q 4225 4875 4225 4550 
L 4225 3900 
L 5850 3900 
Q 5825 3525 5825 2750 
L 5825 500 
z
M 3700 325 
L 3700 1875 
L 2650 1875 
L 2650 325 
L 3700 325 
z
M 5275 325 
L 5275 1875 
L 4225 1875 
L 4225 325 
L 5275 325 
z
M 2150 325 
L 2150 1875 
L 1150 1875 
L 1150 325 
L 2150 325 
z
M 3700 2250 
L 3700 3525 
L 2650 3525 
L 2650 2250 
L 3700 2250 
z
M 5275 2250 
L 5275 3525 
L 4225 3525 
L 4225 2250 
L 5275 2250 
z
M 2150 2250 
L 2150 3525 
L 1150 3525 
L 1150 2250 
L 2150 2250 
z
" transform="scale(0.015625)"/>
      <path id="SimHei-7ebf" d="M 3450 4300 
Q 3450 4675 3375 5125 
Q 3700 5100 4050 5050 
Q 3975 4900 3950 4562 
Q 3925 4225 3950 3600 
L 4800 3750 
Q 5225 3850 5650 3975 
L 5750 3500 
Q 5325 3450 4875 3375 
L 3975 3200 
Q 3975 2800 4025 2500 
L 5000 2675 
Q 5500 2775 5950 2925 
L 6025 2450 
Q 5575 2375 5075 2275 
L 4100 2100 
Q 4150 1600 4350 1175 
Q 4575 1350 4787 1575 
Q 5000 1800 5175 2075 
Q 5550 1775 5750 1675 
Q 5425 1525 5237 1337 
Q 5050 1150 4625 750 
Q 4925 250 5162 112 
Q 5400 -25 5500 100 
Q 5600 225 5675 625 
Q 5900 450 6200 350 
Q 5775 -750 5275 -537 
Q 4775 -325 4225 450 
Q 3875 175 3537 -62 
Q 3200 -300 2700 -550 
Q 2575 -300 2325 -100 
Q 2825 75 3175 275 
Q 3525 475 3975 850 
Q 3750 1350 3650 2025 
Q 2900 1900 2600 1800 
L 2525 2275 
Q 2825 2275 3550 2425 
Q 3500 2825 3500 3100 
Q 2825 2950 2575 2875 
L 2475 3350 
Q 2725 3350 3450 3500 
L 3450 4300 
z
M 1950 4875 
Q 1700 4650 1462 4237 
Q 1225 3825 825 3225 
Q 1425 3250 1650 3250 
Q 1875 3625 2050 4075 
Q 2300 3900 2600 3800 
Q 2350 3550 2087 3125 
Q 1825 2700 1175 1675 
Q 1850 1725 2375 1775 
Q 2300 1525 2300 1350 
Q 2125 1350 1525 1287 
Q 925 1225 550 1125 
Q 525 1375 400 1650 
Q 700 1725 950 2050 
Q 1200 2375 1475 2875 
Q 650 2825 425 2675 
Q 350 2950 200 3225 
Q 525 3450 825 3962 
Q 1125 4475 1375 5150 
Q 1625 4975 1950 4875 
z
M 2575 875 
Q 2550 600 2575 450 
Q 1950 325 1450 200 
Q 950 75 525 -75 
Q 450 200 250 475 
Q 950 550 1325 612 
Q 1700 675 2575 875 
z
M 4850 4025 
Q 4675 4300 4375 4675 
L 4775 4875 
Q 4875 4750 5275 4275 
Q 5025 4175 4850 4025 
z
" transform="scale(0.015625)"/>
      <path id="SimHei-6574" d="M 2400 2825 
Q 2700 2650 3050 2300 
L 2725 1975 
Q 2475 2275 2175 2500 
L 2175 1875 
L 1700 1875 
L 1700 2525 
Q 1425 2250 1200 2100 
Q 975 1950 550 1650 
Q 450 1875 200 2025 
Q 525 2150 862 2350 
Q 1200 2550 1450 2825 
L 525 2825 
Q 550 3125 550 3375 
Q 550 3650 525 3900 
L 1700 3900 
L 1700 4250 
Q 750 4250 375 4225 
L 375 4625 
Q 750 4600 1700 4600 
Q 1700 4875 1675 5175 
L 2200 5175 
Q 2175 4875 2175 4600 
Q 3050 4600 3425 4625 
L 3425 4225 
Q 3050 4250 2175 4250 
L 2175 3900 
L 3275 3900 
Q 3250 3650 3250 3375 
Q 3250 3125 3275 2825 
L 2400 2825 
z
M 4675 1675 
Q 5050 1675 5475 1700 
L 5475 1300 
Q 5050 1325 3425 1325 
L 3425 850 
Q 4925 850 5300 875 
L 5300 475 
Q 4925 500 3425 500 
L 3425 -50 
L 5175 -50 
Q 5550 -50 6025 -25 
L 6025 -425 
Q 5550 -400 5200 -400 
L 1200 -400 
Q 850 -400 375 -425 
L 375 -25 
Q 875 -50 1550 -50 
Q 1550 650 1525 950 
L 2050 950 
Q 2025 725 2025 -50 
L 2975 -50 
L 2975 1325 
Q 1350 1325 950 1300 
L 950 1700 
Q 1350 1675 1700 1675 
L 4675 1675 
z
M 3700 3225 
Q 3525 3350 3325 3450 
Q 3675 3825 3900 4375 
Q 4125 4925 4175 5200 
Q 4375 5125 4725 5025 
Q 4625 4925 4375 4425 
L 5425 4425 
Q 5725 4425 6100 4450 
L 6100 4050 
Q 5750 4075 5625 4075 
Q 5475 3275 4975 2725 
Q 5425 2425 6025 2350 
Q 5875 2175 5800 1875 
Q 5450 1975 5187 2112 
Q 4925 2250 4700 2450 
Q 4250 2125 3725 1875 
Q 3625 2075 3400 2275 
Q 3950 2400 4375 2725 
Q 4175 2950 3875 3450 
L 3700 3225 
z
M 4100 3825 
Q 4425 3250 4700 3000 
Q 5025 3425 5150 4075 
L 4250 4075 
L 4100 3825 
z
M 1700 3175 
L 1700 3550 
L 1000 3550 
L 1000 3175 
L 1700 3175 
z
M 2825 3175 
L 2825 3550 
L 2175 3550 
L 2175 3175 
L 2825 3175 
z
" transform="scale(0.015625)"/>
      <path id="SimHei-5408" d="M 5050 1800 
Q 5025 1550 5025 650 
Q 5025 -250 5050 -525 
L 4525 -525 
L 4525 -50 
L 1750 -50 
L 1750 -600 
L 1250 -600 
Q 1275 -300 1275 550 
Q 1275 1425 1250 1800 
L 5050 1800 
z
M 3375 4800 
Q 4100 3925 4550 3600 
Q 5000 3275 5375 3100 
Q 5750 2925 6100 2825 
Q 5850 2550 5775 2300 
Q 5275 2525 4875 2775 
Q 4475 3025 4062 3412 
Q 3650 3800 3125 4475 
Q 2650 3800 2187 3362 
Q 1725 2925 1400 2675 
Q 1075 2425 675 2175 
Q 625 2275 275 2575 
Q 800 2825 1275 3175 
Q 1750 3525 2225 4062 
Q 2700 4600 3000 5225 
Q 3275 5050 3500 4950 
L 3375 4800 
z
M 4525 350 
L 4525 1400 
L 1750 1400 
L 1750 350 
L 4525 350 
z
M 3925 2825 
Q 4325 2825 4625 2850 
L 4625 2375 
Q 4300 2400 3950 2400 
L 2550 2400 
Q 2025 2400 1700 2375 
L 1700 2850 
Q 2175 2825 2550 2825 
L 3925 2825 
z
" transform="scale(0.015625)"/>
     </defs>
     <use xlink:href="#SimHei-4e0d"/>
     <use xlink:href="#SimHei-540c" transform="translate(100 0)"/>
     <use xlink:href="#SimHei-6e29" transform="translate(200 0)"/>
     <use xlink:href="#SimHei-5ea6" transform="translate(300 0)"/>
     <use xlink:href="#SimHei-4e0b" transform="translate(400 0)"/>
     <use xlink:href="#SimHei-7684" transform="translate(500 0)"/>
     <use xlink:href="#SimHei-76f8" transform="translate(600 0)"/>
     <use xlink:href="#SimHei-56fe" transform="translate(700 0)"/>
     <use xlink:href="#SimHei-66f2" transform="translate(800 0)"/>
     <use xlink:href="#SimHei-7ebf" transform="translate(900 0)"/>
     <use xlink:href="#SimHei-6574" transform="translate(1000 0)"/>
     <use xlink:href="#SimHei-5408" transform="translate(1100 0)"/>
    </g>
   </g>
   <g id="legend_1">
    <g id="patch_7">
     <path d="M 608.945625 132.409375 
L 689.345625 132.409375 
Q 691.745625 132.409375 691.745625 130.009375 
L 691.745625 34.6 
Q 691.745625 32.2 689.345625 32.2 
L 608.945625 32.2 
Q 606.545625 32.2 606.545625 34.6 
L 606.545625 130.009375 
Q 606.545625 132.409375 608.945625 132.409375 
z
" style="fill: #ffffff; opacity: 0.8; stroke: #cccccc; stroke-linejoin: miter"/>
    </g>
    <g id="text_18">
     <!-- 温度 -->
     <g transform="translate(637.145625 46.609375) scale(0.12 -0.12)">
      <use xlink:href="#SimHei-6e29"/>
      <use xlink:href="#SimHei-5ea6" transform="translate(100 0)"/>
     </g>
    </g>
    <g id="line2d_43">
     <path d="M 611.345625 58.309375 
L 623.345625 58.309375 
L 635.345625 58.309375 
" style="fill: none; stroke: #8000ff; stroke-width: 2; stroke-linecap: square"/>
     <g>
      <use xlink:href="#m61380b258f" x="623.345625" y="58.309375" style="fill: #8000ff; stroke: #8000ff"/>
     </g>
    </g>
    <g id="text_19">
     <!-- 0.0℃ -->
     <g transform="translate(644.945625 62.509375) scale(0.12 -0.12)">
      <defs>
       <path id="SimHei-2e" d="M 1075 125 
L 500 125 
L 500 675 
L 1075 675 
L 1075 125 
z
" transform="scale(0.015625)"/>
       <path id="SimHei-2103" d="M 1050 5050 
Q 1500 5025 1675 4525 
L 1675 4300 
Q 1550 3900 1175 3825 
L 975 3825 
Q 500 3875 450 4450 
Q 475 4925 1025 5050 
L 1050 5050 
z
M 1025 4850 
Q 675 4750 650 4450 
Q 675 4125 950 4025 
L 1100 4000 
Q 1500 4125 1475 4475 
L 1475 4500 
Q 1375 4775 1150 4850 
L 1025 4850 
z
M 4025 4425 
Q 5375 4350 5750 3300 
L 5775 3250 
L 5300 3050 
Q 5000 3850 4300 3900 
L 3925 3925 
Q 2500 3850 2450 2025 
Q 2525 775 3475 425 
Q 3675 325 4125 350 
Q 4975 450 5400 1450 
L 5400 1475 
L 5900 1375 
L 5900 1350 
Q 5325 -75 4075 -125 
L 3725 -125 
Q 2400 100 2100 1175 
Q 1975 1525 1975 2100 
Q 2050 3550 2975 4125 
Q 3375 4400 3925 4425 
L 4025 4425 
z
" transform="scale(0.015625)"/>
      </defs>
      <use xlink:href="#SimHei-30"/>
      <use xlink:href="#SimHei-2e" transform="translate(50 0)"/>
      <use xlink:href="#SimHei-30" transform="translate(100 0)"/>
      <use xlink:href="#SimHei-2103" transform="translate(150 0)"/>
     </g>
    </g>
    <g id="line2d_44">
     <path d="M 611.345625 74.209375 
L 623.345625 74.209375 
L 635.345625 74.209375 
" style="fill: none; stroke: #00b5eb; stroke-width: 2; stroke-linecap: square"/>
     <g>
      <use xlink:href="#mbc4710bcab" x="623.345625" y="74.209375" style="fill: #00b5eb; stroke: #00b5eb"/>
     </g>
    </g>
    <g id="text_20">
     <!-- 25.0℃ -->
     <g transform="translate(644.945625 78.409375) scale(0.12 -0.12)">
      <defs>
       <path id="SimHei-35" d="M 550 1325 
Q 725 650 1150 575 
Q 1575 500 1837 662 
Q 2100 825 2212 1087 
Q 2325 1350 2312 1675 
Q 2300 2000 2137 2225 
Q 1975 2450 1725 2525 
Q 1475 2600 1162 2525 
Q 850 2450 650 2175 
L 225 2225 
Q 275 2375 700 4375 
L 2675 4375 
L 2675 3925 
L 1075 3925 
Q 950 3250 825 2850 
Q 1200 3025 1525 3012 
Q 1850 3000 2150 2862 
Q 2450 2725 2587 2487 
Q 2725 2250 2787 2012 
Q 2850 1775 2837 1500 
Q 2825 1225 2725 937 
Q 2625 650 2425 462 
Q 2225 275 1937 162 
Q 1650 50 1275 75 
Q 900 100 562 350 
Q 225 600 100 1200 
L 550 1325 
z
" transform="scale(0.015625)"/>
      </defs>
      <use xlink:href="#SimHei-32"/>
      <use xlink:href="#SimHei-35" transform="translate(50 0)"/>
      <use xlink:href="#SimHei-2e" transform="translate(100 0)"/>
      <use xlink:href="#SimHei-30" transform="translate(150 0)"/>
      <use xlink:href="#SimHei-2103" transform="translate(200 0)"/>
     </g>
    </g>
    <g id="line2d_45">
     <path d="M 611.345625 90.109375 
L 623.345625 90.109375 
L 635.345625 90.109375 
" style="fill: none; stroke: #80ffb4; stroke-width: 2; stroke-linecap: square"/>
     <g>
      <use xlink:href="#m3d4d4997ab" x="623.345625" y="90.109375" style="fill: #80ffb4; stroke: #80ffb4"/>
     </g>
    </g>
    <g id="text_21">
     <!-- 50.0℃ -->
     <g transform="translate(644.945625 94.309375) scale(0.12 -0.12)">
      <use xlink:href="#SimHei-35"/>
      <use xlink:href="#SimHei-30" transform="translate(50 0)"/>
      <use xlink:href="#SimHei-2e" transform="translate(100 0)"/>
      <use xlink:href="#SimHei-30" transform="translate(150 0)"/>
      <use xlink:href="#SimHei-2103" transform="translate(200 0)"/>
     </g>
    </g>
    <g id="line2d_46">
     <path d="M 611.345625 106.009375 
L 623.345625 106.009375 
L 635.345625 106.009375 
" style="fill: none; stroke: #ffb360; stroke-width: 2; stroke-linecap: square"/>
     <g>
      <use xlink:href="#m89ce4c6748" x="623.345625" y="106.009375" style="fill: #ffb360; stroke: #ffb360"/>
     </g>
    </g>
    <g id="text_22">
     <!-- 75.0℃ -->
     <g transform="translate(644.945625 110.209375) scale(0.12 -0.12)">
      <defs>
       <path id="SimHei-37" d="M 850 150 
Q 1300 2050 2425 3925 
L 275 3925 
L 275 4375 
L 2950 4375 
L 2950 3950 
Q 1775 2050 1400 150 
L 850 150 
z
" transform="scale(0.015625)"/>
      </defs>
      <use xlink:href="#SimHei-37"/>
      <use xlink:href="#SimHei-35" transform="translate(50 0)"/>
      <use xlink:href="#SimHei-2e" transform="translate(100 0)"/>
      <use xlink:href="#SimHei-30" transform="translate(150 0)"/>
      <use xlink:href="#SimHei-2103" transform="translate(200 0)"/>
     </g>
    </g>
    <g id="line2d_47">
     <path d="M 611.345625 121.909375 
L 623.345625 121.909375 
L 635.345625 121.909375 
" style="fill: none; stroke: #ff0000; stroke-width: 2; stroke-linecap: square"/>
     <g>
      <use xlink:href="#m3943557dd3" x="623.345625" y="121.909375" style="fill: #ff0000; stroke: #ff0000"/>
     </g>
    </g>
    <g id="text_23">
     <!-- 100.0℃ -->
     <g transform="translate(644.945625 126.109375) scale(0.12 -0.12)">
      <use xlink:href="#SimHei-31"/>
      <use xlink:href="#SimHei-30" transform="translate(50 0)"/>
      <use xlink:href="#SimHei-30" transform="translate(100 0)"/>
      <use xlink:href="#SimHei-2e" transform="translate(150 0)"/>
      <use xlink:href="#SimHei-30" transform="translate(200 0)"/>
      <use xlink:href="#SimHei-2103" transform="translate(250 0)"/>
     </g>
    </g>
   </g>
  </g>
 </g>
 <defs>
  <clipPath id="peb4cee69cc">
   <rect x="44.309375" y="26.2" width="653.43625" height="504.47125"/>
  </clipPath>
 </defs>
</svg>
